<svg xmlns="http://www.w3.org/2000/svg" version="1.1" xmlns:xlink="http://www.w3.org/1999/xlink" xmlns:svgjs="http://svgjs.dev/svgjs" width="1000" height="1000" viewBox="0 0 1000 1000"><rect width="1000" height="1000" fill="#ffffff"></rect><g transform="matrix(0.7,0,0,0.7,150,150.00071484524273)"><svg viewBox="0 0 280 280" data-background-color="#ffffff" preserveAspectRatio="xMidYMid meet" height="1000" width="1000" xmlns="http://www.w3.org/2000/svg" xmlns:xlink="http://www.w3.org/1999/xlink"><g id="tight-bounds" transform="matrix(1,0,0,1,0,-0.000025641169656864804)"><svg viewBox="0 0 280 280" height="280" width="280"><g><svg viewBox="0 0 280 280" height="280" width="280"><g><svg viewBox="0 0 280 280" height="280" width="280"><g id="textblocktransform"><svg viewBox="0 0 280 280" height="280" width="280" id="textblock"><g><svg viewBox="0 0 280 280" height="280" width="280"><g transform="matrix(1,0,0,1,57.50420886156945,57.50420886156945)"><svg viewBox="0 0 164.9915822768611 164.9915822768611" height="164.9915822768611" width="164.9915822768611"><g><circle r="82" cx="82.49579113843055" cy="82.49579113843055" fill="#8b3c7f" data-fill-palette-color="accent"></circle><svg xmlns="http://www.w3.org/2000/svg" xmlns:xlink="http://www.w3.org/1999/xlink" version="1.1" x="24.748737341529164" y="24.74873734152917" viewBox="30.83353042602539 5.000033855438232 38.33346939086914 89.99993896484375" enable-background="new 0 0 100 100" xml:space="preserve" height="115.49410759380275" width="115.49410759380275" class="icon-o-0" data-fill-palette-color="quaternary" id="o-0"><g fill="#ffffff" data-fill-palette-color="quaternary"><path fill="#ffffff" d="M69.167 50c0 0.86-0.269 1.724-0.805 2.452L38.307 93.313c-1.354 1.842-3.945 2.236-5.786 0.882-1.845-1.356-2.232-3.948-0.883-5.786L59.89 50 31.638 11.591c-1.353-1.842-0.96-4.432 0.883-5.786 1.841-1.354 4.432-0.96 5.786 0.882l30.056 40.861C68.898 48.276 69.167 49.14 69.167 50z" data-fill-palette-color="quaternary"></path></g></svg></g></svg></g><g><path d="M34.83 100.427c-0.79 1.988-1.956 3.588-3.499 4.799v0c-1.577 1.44-3.588 2.341-6.033 2.702v0c-2.746 0.384-5.649-0.031-8.708-1.246v0c-2.166-0.861-3.966-2.017-5.398-3.47-1.43-1.459-2.459-3.139-3.086-5.041v0c-0.621-1.864-0.86-3.862-0.719-5.993 0.133-2.128 0.64-4.303 1.523-6.525v0c1.296-3.262 3.463-6.296 6.5-9.101v0l5.91 4.068c-0.126 0.156-0.275 0.343-0.447 0.56-0.169 0.211-0.355 0.454-0.558 0.73v0c-0.912 1.255-1.549 2.196-1.911 2.822v0c-0.349 0.574-0.599 1.052-0.751 1.433v0c-0.638 1.606-0.689 3-0.154 4.182v0c0.595 1.391 2.065 2.552 4.41 3.483v0c2.142 0.851 3.798 1.138 4.969 0.863v0c1.081-0.191 1.827-0.806 2.241-1.847v0c0.264-0.665 0.39-1.502 0.377-2.511v0c-0.406-0.161-1.028-0.38-1.866-0.656v0l-0.855-0.297c-0.597-0.201-1.468-0.53-2.612-0.984v0l-1.034-0.411c-0.228-0.09-0.372-0.194-0.433-0.31-0.057-0.108-0.045-0.264 0.036-0.467v0c0.056-0.07 0.155-0.284 0.297-0.641v0l1.61-4.053c0.477-1.2 0.779-1.996 0.905-2.387v0c0.274-0.689 0.463-1.131 0.569-1.324v0c0.203-0.297 0.411-0.471 0.624-0.522 0.213-0.051 0.497-0.006 0.855 0.136v0c0.129 0.051 0.248 0.084 0.356 0.099v0l0.351 0.139 0.609 0.242 1.145 0.455 3.859 1.533 0.194 0.077c0.095 0.066 0.199 0.136 0.312 0.209 0.117 0.082 0.252 0.154 0.406 0.215v0l0.194 0.077c1.606 0.638 2.717 1.108 3.331 1.409v0c1.027 0.465 1.656 0.818 1.888 1.06v0c-0.262 0.659-0.434 1.164-0.516 1.515v0l-0.297 0.855-0.048 0.12c-0.09 0.228-0.153 0.349-0.187 0.364v0c-0.034 0.015-0.061 0.029-0.081 0.043-0.017 0.007-0.026 0.011-0.026 0.011v0l-0.044 0.111c0.015 0.034 0.032 0.063 0.052 0.084 0.02 0.022 0.03 0.033 0.029 0.033v0l-1.518 3.823-0.077 0.193-0.154 0.388-0.179 0.453c-0.007 0.09-0.035 0.196-0.084 0.319v0c-0.042 0.105-0.154 0.163-0.338 0.176v0c-0.526-0.002-1.116-0.115-1.768-0.339v0c-0.327-0.073-0.793-0.201-1.397-0.384v0c1.208 0.744 1.895 1.946 2.062 3.609v0c0.193 1.523-0.086 3.23-0.836 5.119z" fill="#8b3c7f" data-fill-palette-color="primary"></path><path d="M63.668 58.556c-2.369 2.247-4.415 3.833-6.14 4.757v0c-2.386 1.314-4.717 1.768-6.993 1.361v0c-2.685-0.521-5.385-2.213-8.101-5.076v0c-1.946-2.052-3.37-4.01-4.272-5.874-0.906-1.87-1.314-3.714-1.224-5.535v0c0.086-1.825 0.675-3.662 1.768-5.511 1.098-1.854 2.733-3.811 4.905-5.872v0c1.691-1.604 3.528-2.853 5.509-3.747v0c2.455-1.078 4.832-1.425 7.132-1.042v0c2.785 0.425 5.425 1.951 7.918 4.58v0c2.903 3.061 4.71 5.884 5.419 8.469v0c0.578 2.437 0.311 4.807-0.799 7.111v0c-0.907 1.873-2.614 3.999-5.122 6.379zM60.689 55.892c0.24-0.228 0.289-0.557 0.145-0.987v0c-0.308-0.922-1.054-2.126-2.238-3.615v0c-1.069-1.368-2.133-2.609-3.19-3.724v0l-1.128-1.189-0.711-0.749c-0.83-0.874-1.899-1.882-3.209-3.022v0c-1.405-1.241-2.587-2.068-3.546-2.483v0c-0.478-0.186-0.827-0.174-1.048 0.036v0c-0.437 0.415-0.358 1.134 0.238 2.156v0c0.892 1.345 1.782 2.485 2.672 3.422v0c0.694 0.847 1.844 2.117 3.448 3.808v0c1.08 1.139 1.998 2.048 2.752 2.729v0c0.884 0.932 2.013 1.92 3.386 2.963v0c1.181 0.851 1.991 1.069 2.429 0.655z" fill="#8b3c7f" data-fill-palette-color="primary"></path><path d="M130.899 29.396c-1.798 0.194-3.304 0.277-4.52 0.248v0c-1.578-0.056-3.027-0.303-4.346-0.74v0c-0.173-0.061-0.427-0.164-0.763-0.307-0.329-0.144-0.611-0.287-0.845-0.428v0c-0.984-0.666-1.815-1.446-2.491-2.339v0c-0.513-0.437-1.008-1.073-1.485-1.908v0c-0.944-1.83-1.558-4.065-1.842-6.705v0c-0.336-3.114 0.008-5.912 1.032-8.395v0c0.878-2.353 2.184-4.266 3.916-5.738 1.733-1.473 3.775-2.419 6.128-2.839v0l0.49-0.093 0.533-0.058c2.127-0.23 4.465-0.039 7.016 0.572v0c0.229 0.082 0.729 0.248 1.502 0.497 0.766 0.25 1.488 0.545 2.164 0.885v0l-0.167 5.394-2.476-0.352c-0.899-0.123-1.731-0.143-2.494-0.061v0c-1.528 0.165-2.611 0.861-3.252 2.09v0c-0.687 1.286-0.885 3.279-0.593 5.979v0c0.095 0.876 0.201 1.487 0.318 1.834v0c0.297 1.706 0.816 2.933 1.556 3.678v0c0.709 0.643 1.498 0.917 2.367 0.824v0c0.816-0.088 1.704-0.447 2.661-1.077v0c0.825-0.502 1.719-1.165 2.683-1.988v0l1.129 6.663c-0.953 1.102-2.226 2.082-3.819 2.94v0c-1.513 0.796-2.98 1.271-4.402 1.424z" fill="#8b3c7f" data-fill-palette-color="primary"></path><path d="M159.315 29.929c-0.335-0.106-0.485-0.442-0.451-1.008v0c-0.001-0.084 0.027-0.217 0.085-0.4v0c0.084-0.265 0.259-0.64 0.524-1.126v0c0.165-0.323 0.298-0.576 0.398-0.76 0.1-0.184 0.18-0.325 0.239-0.424v0c1.953-3.438 3.752-6.434 5.397-8.99v0l6.681-11.522c0.016-0.05 0.082-0.116 0.198-0.198 0.108-0.077 0.22-0.114 0.338-0.111v0l0.199 0.063c-0.01 0.032 0.023 0.059 0.098 0.083v0c0.316 0.1 0.682 0.171 1.1 0.214v0c0.415 0.049 0.781 0.123 1.096 0.223v0c0.574 0.182 1.096 0.39 1.564 0.622v0c0.24 0.076 0.498 0.172 0.774 0.287 0.282 0.117 0.581 0.226 0.897 0.326v0c0.101 0.032 0.226 0.044 0.374 0.036v0l0.701 0.222 0.909 0.289 0.949 0.26c0.191 0.033 0.416 0.09 0.675 0.172v0c0.215 0.068 0.326 0.09 0.334 0.065v0l0.625 0.198 1.335 0.424 1.647 0.523c1.464 0.465 2.422 0.797 2.873 0.996v0c0.082 0.026 0.191 0.067 0.326 0.124 0.141 0.059 0.216 0.117 0.225 0.176v0c0.183 0.058 0.37 0.104 0.562 0.136 0.191 0.033 0.365 0.074 0.523 0.125v0c0.39 0.041 0.756 0.115 1.096 0.223v0c0.158 0.05 0.304 0.138 0.438 0.264v0c0.132 0.132 0.289 0.227 0.472 0.285v0l0.204 0.013 0.123 0.039c0.058 0.081 0.12 0.18 0.187 0.299 0.058 0.123 0.079 0.209 0.063 0.26v0l-1.189 13.265c-0.131 3.322-0.402 6.803-0.815 10.445v0c-0.05 0.158-0.051 0.345-0.002 0.562v0c-0.033 0.191-0.074 0.452-0.123 0.784-0.041 0.327-0.095 0.595-0.162 0.804v0c-0.009 0.115-0.042 0.265-0.1 0.447v0c-0.116 0.366-0.29 0.641-0.522 0.825v0c-0.157 0.124-0.34 0.153-0.549 0.086v0l-0.511-0.162c-0.391-0.124-0.687-0.232-0.888-0.324v0l-1.022-0.324-0.975-0.31-0.786-0.249c-0.208-0.066-0.308-0.112-0.301-0.138v0l-2.471-0.784 0.024-0.076c-0.089-0.091-0.213-0.161-0.37-0.211v0c0 0-0.008 0.004-0.025 0.013-0.017 0.009-0.043 0.025-0.078 0.048v0c-0.016 0.05-0.049 0.068-0.1 0.052v0l-0.123-0.04-0.312-0.099c-0.11-0.091-0.364-0.199-0.762-0.325v0c-0.765-0.305-1.368-0.528-1.81-0.668v0c-0.084-0.284-0.098-0.806-0.044-1.568 0.054-0.761 0.126-1.6 0.215-2.516v0c0.084-0.439 0.124-0.742 0.122-0.91v0c-0.581-0.073-1.317-0.251-2.207-0.534v0l-1.221-0.387-1.136-0.361-0.675 1.172c-0.888 1.615-1.502 2.598-1.842 2.948v0c-0.101-0.032-0.239-0.045-0.416-0.038v0c-0.059 0.009-0.112 0.013-0.16 0.012-0.042 0.001-0.063 0.001-0.063 0.001v0l-0.151-0.048c-0.158-0.05-0.27-0.113-0.336-0.19v0c-0.032-0.073-0.087-0.121-0.162-0.146v0l-1.798-0.477-0.625-0.198-0.587-0.186c-0.123 0.016-0.264 0-0.421-0.051v0l-0.152-0.048-3.607-1.145-0.36-0.115c-0.292-0.065-0.883-0.239-1.773-0.521v0l-1.022-0.325c-0.216-0.041-0.52-0.123-0.912-0.247v0zM180.488 26.073c0.224-1.339 0.336-2.009 0.335-2.009v0c0.041-0.39 0.131-1.122 0.27-2.197v0c0.027-0.283 0.119-1.032 0.276-2.247v0c0.191-1.322 0.286-1.983 0.286-1.983v0c0.089-0.542 0.155-1.024 0.199-1.448v0l0.122-0.514c-0.034-0.157-0.033-0.289 0-0.396v0l0.028-0.252c-0.043 0.049-0.081 0.124-0.113 0.225v0c-0.034 0.107-0.08 0.166-0.139 0.175v0l-0.051 0.161-0.235 0.478c-0.083 0.175-0.183 0.369-0.3 0.582-0.108 0.209-0.228 0.435-0.361 0.677v0l-0.547 1.036c-0.807 1.557-1.281 2.459-1.422 2.706v0c-0.115 0.276-0.315 0.685-0.599 1.228v0c-0.115 0.165-0.256 0.423-0.422 0.772v0l-0.887 1.709 1.998 0.635 0.302 0.002 0.075 0.024c0.316 0.1 0.543 0.204 0.684 0.31v0c0.107 0.034 0.199 0.084 0.275 0.15 0.083 0.068 0.158 0.127 0.226 0.176z" fill="#8b3c7f" data-fill-palette-color="primary"></path><path d="M220.798 66.445c-0.077-0.073-0.135-0.147-0.174-0.221v0c-0.128-0.47-0.187-0.907-0.177-1.31v0c0.039-0.155 0.046-0.245 0.022-0.267v0c0.017-0.057 0.007-0.103-0.032-0.14v0l-0.03-0.083c-0.004-0.159-0.005-0.239-0.005-0.239v0l1.053-6.165c0.127-0.373 0.225-0.811 0.293-1.314v0c-0.006-0.272 0.016-0.534 0.066-0.788v0c0.033-0.197 0.011-0.333-0.065-0.406v0c-0.062-0.059-0.137-0.072-0.226-0.037-0.084 0.03-0.183 0.086-0.298 0.168v0c-0.575 0.477-1.296 1.17-2.166 2.08v0c-0.833 0.872-1.553 1.53-2.161 1.975v0c-0.309 0.199-0.524 0.242-0.643 0.127v0l-0.172-0.164c-0.025-0.06-0.047-0.109-0.067-0.146-0.02-0.037-0.029-0.056-0.029-0.056v0c-0.749-0.606-1.857-1.531-3.324-2.776v0c-1.424-1.213-2.492-2.161-3.206-2.843v0c-0.196-0.188-0.336-0.358-0.419-0.51v0l-0.654-0.624-0.539-0.515-0.265-0.254-0.728-1.381 0.133-0.327c0.018-0.019 0.05-0.062 0.096-0.128 0.05-0.071 0.121-0.155 0.212-0.251v0c0.114-0.12 0.306-0.358 0.574-0.716v0c1.052-1.303 1.464-1.816 1.236-1.539v0c0.456-0.554 1.239-1.513 2.351-2.878v0l0.964-1.182c0.343-0.359 0.638-0.687 0.884-0.982 0.246-0.296 0.453-0.551 0.621-0.766v0l0.56-0.716c0.72-0.869 1.421-1.66 2.103-2.374v0c0.023-0.024 0.057-0.05 0.103-0.079 0.046-0.029 0.126-0.104 0.241-0.224v0c0.153-0.083 0.353-0.254 0.6-0.512v0l0.536-0.504 0.379-0.325c0.398-0.417 0.955-1.043 1.671-1.879v0c0.395-0.566 0.962-1.238 1.704-2.014v0c1.061-1.111 1.906-1.856 2.534-2.236v0c0.859-0.544 1.496-0.617 1.913-0.219v0c2.241 2.141 4.496 4.349 6.764 6.625v0c0.512 0.489 1.268 1.247 2.265 2.273v0l1.129 1.134c1.549 1.562 2.63 2.635 3.243 3.221v0c2.443 2.562 3.762 5.055 3.958 7.476v0c0.123 1.06-0.004 2.075-0.38 3.044-0.376 0.969-0.944 1.851-1.703 2.646v0c-0.874 0.915-1.846 1.597-2.918 2.048v0c-0.868 0.352-1.805 0.538-2.812 0.556v0c-0.974 0.022-1.919-0.12-2.834-0.427v0c0.065 0.172 0.099 0.452 0.104 0.841v0c-0.015 0.178 0.001 0.44 0.046 0.786v0l0.135 0.693c-0.034 0.16-0.054 0.32-0.059 0.479-0.005 0.169-0.018 0.34-0.038 0.513v0l-0.246 3.062c-0.145 1.418-0.308 2.403-0.487 2.956v0c-0.104 0.386-0.222 0.649-0.354 0.788v0c-0.192 0.201-0.443 0.305-0.752 0.312-0.314 0.003-0.743-0.027-1.288-0.09v0c-0.409-0.052-0.847-0.149-1.313-0.293v0c-0.448-0.126-0.817-0.194-1.108-0.207v0l-1.669-0.453c-0.608-0.159-1.215-0.377-1.82-0.654v0c-0.024-0.023-0.059-0.038-0.107-0.047-0.047-0.008-0.108-0.03-0.184-0.066v0c-0.179-0.052-0.612-0.255-1.3-0.609v0c-0.155-0.039-0.373-0.151-0.654-0.337v0c-0.094-0.017-0.191-0.054-0.291-0.113-0.095-0.054-0.162-0.099-0.199-0.135v0l-0.151-0.145c-0.115 0.082-0.204 0.094-0.266 0.035v0l-0.087-0.083zM225.507 50.859l0.445 0.425c0.618 0.59 1.399 0.745 2.343 0.466v0c0.871-0.231 1.666-0.685 2.386-1.361v0c0.436-0.38 0.929-0.857 1.478-1.432v0l0.309-0.323c0.439-0.46 0.815-1.012 1.128-1.656v0c0.45-0.788 0.559-1.559 0.326-2.312v0c-0.046-0.383-0.249-0.746-0.608-1.09v0c-0.101-0.096-0.294-0.052-0.58 0.133v0c-0.593 0.267-1.355 0.867-2.284 1.802v0c-0.457 0.315-0.941 0.741-1.453 1.277v0l-0.88 0.863c-1.141 1.118-2.07 2.052-2.788 2.804v0c-0.018 0.019-0.027 0.047-0.026 0.085-0.004 0.042 0.004 0.073 0.023 0.091v0z" fill="#8b3c7f" data-fill-palette-color="primary"></path><path d="M240.765 94.31c-0.145-0.356-0.012-0.721 0.4-1.097v0c0.679-0.721 2.125-1.533 4.338-2.436v0c2.134-0.871 4.599-1.831 7.398-2.88v0c0.899-0.338 2.274-0.886 4.126-1.642v0l0.107-0.183-1.723-4.222c-0.135-0.331-0.058-0.667 0.233-1.007 0.29-0.34 0.745-0.698 1.364-1.072v0c0.708-0.439 1.773-0.949 3.196-1.529v0l0.533-0.218c0.251-0.103 0.46-0.17 0.626-0.202v0l0.57-0.233 0.35-0.143c0.147-0.06 0.309-0.04 0.485 0.06 0.179 0.106 0.334 0.25 0.466 0.432v0c0.179 0.227 0.372 0.596 0.58 1.104v0l1.179 2.888c0.26 0.638 0.446 1.127 0.556 1.468v0l0.538 1.423 5.598 13.712c0.405 0.993 0.657 1.645 0.755 1.956v0c0.028 0.139 0.076 0.327 0.144 0.563 0.071 0.243 0.086 0.43 0.047 0.561v0c-0.001 0.208-0.052 0.354-0.154 0.438-0.099 0.09-0.262 0.182-0.489 0.275v0l-6.281 2.564c-0.282 0.115-0.52 0.076-0.713-0.117v0c-0.115-0.125-0.225-0.316-0.331-0.573v0l-0.495-1.214-0.515-1.26c-0.238-0.582-0.392-1.038-0.461-1.367v0l-0.466-1.141c-0.095-0.233-0.2-0.34-0.314-0.322v0c-0.025 0.01-0.06 0.01-0.107 0-0.053-0.007-0.104-0.001-0.153 0.02v0l-0.57 0.233-1.297 0.529c-0.38 0.155-0.676 0.262-0.889 0.32v0c-0.736 0.3-2.37 0.907-4.901 1.819v0l-1.17 0.392c-1.087 0.386-1.884 0.651-2.391 0.793v0l-3.614 1.476c-0.865 0.353-1.486 0.399-1.865 0.138v0c-0.255-0.275-0.421-0.472-0.498-0.59v0l-0.437-0.938c-0.403-0.987-0.712-1.673-0.925-2.058v0l-1.67-3.985c-0.232-0.499-0.619-1.411-1.16-2.735z" fill="#8b3c7f" data-fill-palette-color="primary"></path><path d="M10.344 192.668c-0.819-2.041-1.083-4.061-0.794-6.061v0c0.156-2.189 1.018-4.283 2.585-6.282v0c1.78-2.234 4.24-3.981 7.381-5.24v0c2.225-0.893 4.387-1.303 6.485-1.232 2.092 0.074 4.049 0.595 5.871 1.563v0c1.776 0.957 3.369 2.28 4.782 3.968 1.404 1.685 2.562 3.664 3.473 5.938v0c1.344 3.35 1.879 7.149 1.607 11.397v0l-7.292 1.138c-0.016-0.2-0.038-0.441-0.066-0.723-0.019-0.278-0.051-0.59-0.096-0.935v0c-0.211-1.592-0.399-2.748-0.566-3.466v0c-0.149-0.675-0.302-1.206-0.458-1.593v0c-0.663-1.653-1.613-2.732-2.849-3.235v0c-1.43-0.611-3.349-0.433-5.759 0.534v0c-2.2 0.883-3.64 1.838-4.319 2.867v0c-0.669 0.911-0.789 1.901-0.36 2.97v0c0.274 0.682 0.774 1.395 1.5 2.138v0c0.418-0.168 1.034-0.447 1.847-0.837v0l0.852-0.385c0.592-0.266 1.476-0.635 2.65-1.105v0l1.06-0.426c0.24-0.096 0.42-0.126 0.542-0.089 0.124 0.043 0.228 0.169 0.312 0.378v0c0.001 0.092 0.076 0.323 0.224 0.692v0l1.668 4.158c0.493 1.229 0.834 2.034 1.023 2.415v0c0.284 0.707 0.452 1.171 0.505 1.392v0c0.058 0.376 0.028 0.656-0.092 0.84-0.125 0.186-0.372 0.353-0.741 0.5v0c-0.129 0.052-0.241 0.111-0.335 0.178v0l-0.351 0.14-0.627 0.252-1.18 0.473-3.964 1.591-0.203 0.081c-0.114 0.017-0.241 0.04-0.38 0.067-0.141 0.021-0.292 0.064-0.452 0.127v0l-0.193 0.078c-1.647 0.661-2.81 1.099-3.487 1.313v0c-1.092 0.374-1.808 0.554-2.149 0.541v0c-0.274-0.682-0.506-1.181-0.697-1.497v0l-0.384-0.852-0.045-0.111c-0.096-0.24-0.137-0.377-0.122-0.411v0c0.021-0.037 0.035-0.064 0.043-0.081 0.005-0.023 0.007-0.035 0.007-0.035v0l-0.044-0.111c-0.037-0.021-0.073-0.031-0.109-0.031-0.03-0.002-0.044-0.004-0.045-0.004v0l-1.575-3.927-0.078-0.194-0.159-0.396-0.188-0.471c-0.057-0.07-0.111-0.17-0.163-0.298v0c-0.042-0.104-0.002-0.228 0.119-0.369v0c0.402-0.368 0.922-0.698 1.562-0.991v0c0.3-0.177 0.737-0.413 1.311-0.707v0c-1.427 0.301-2.79-0.108-4.089-1.229v0c-1.222-1.001-2.222-2.47-2.998-4.405z" fill="#8b3c7f" data-fill-palette-color="primary"></path><path d="M45.744 243.975c-2.439-2.298-4.183-4.31-5.232-6.036v0c-1.49-2.368-2.09-4.735-1.799-7.1v0c0.376-2.785 1.957-5.654 4.741-8.609v0c1.994-2.116 3.922-3.689 5.784-4.718 1.867-1.035 3.737-1.561 5.61-1.58v0c1.878-0.014 3.798 0.489 5.758 1.509 1.97 1.019 4.073 2.582 6.309 4.69v0c1.745 1.644 3.134 3.458 4.167 5.442v0c1.253 2.455 1.745 4.874 1.474 7.257v0c-0.27 2.885-1.682 5.681-4.235 8.39v0c-2.979 3.162-5.773 5.18-8.379 6.053v0c-2.475 0.734-4.925 0.596-7.349-0.414v0c-1.978-0.817-4.261-2.445-6.849-4.884zM48.312 240.757c0.246 0.232 0.586 0.261 1.021 0.089v0c0.926-0.365 2.12-1.197 3.581-2.495v0c1.338-1.178 2.549-2.343 3.634-3.495v0l1.158-1.229 0.729-0.774c0.849-0.901 1.822-2.055 2.919-3.46v0c1.192-1.516 1.972-2.778 2.34-3.787v0c0.163-0.501 0.131-0.859-0.095-1.072v0c-0.448-0.422-1.182-0.3-2.202 0.368v0c-1.329 0.995-2.448 1.975-3.356 2.938v0c-0.83 0.765-2.067 2.02-3.712 3.765v0c-1.104 1.171-1.983 2.162-2.638 2.973v0c-0.913 0.969-1.865 2.187-2.857 3.655v0c-0.796 1.26-0.971 2.102-0.522 2.524z" fill="#8b3c7f" data-fill-palette-color="primary"></path><path d="M127.747 279.937c-1.85-0.205-3.381-0.459-4.593-0.76v0c-1.575-0.401-2.974-0.97-4.198-1.706v0c-0.155-0.104-0.384-0.263-0.687-0.476-0.302-0.22-0.555-0.428-0.76-0.624v0c-0.841-0.886-1.5-1.852-1.977-2.898v0c-0.424-0.56-0.781-1.309-1.07-2.248v0c-0.539-2.046-0.658-4.427-0.355-7.146v0c0.355-3.199 1.325-5.93 2.909-8.192v0c1.4-2.17 3.134-3.8 5.2-4.89 2.067-1.09 4.327-1.585 6.782-1.485v0l0.508 0.016 0.553 0.061c2.185 0.243 4.489 0.952 6.91 2.127v0c0.211 0.137 0.676 0.418 1.395 0.845 0.72 0.42 1.379 0.873 1.978 1.359v0l-1.358 5.386-2.418-0.908c-0.87-0.323-1.697-0.528-2.48-0.615v0c-1.573-0.175-2.817 0.284-3.731 1.374v0c-0.979 1.137-1.623 3.095-1.931 5.873v0c-0.099 0.895-0.127 1.532-0.083 1.91v0c-0.084 1.776 0.163 3.123 0.741 4.04v0c0.564 0.802 1.297 1.253 2.199 1.353v0c0.836 0.093 1.803-0.07 2.902-0.487v0c0.942-0.322 1.987-0.789 3.134-1.401v0l-0.341 6.939c-1.205 0.892-2.702 1.592-4.491 2.1v0c-1.697 0.464-3.277 0.616-4.738 0.453z" fill="#8b3c7f" data-fill-palette-color="primary"></path><path d="M165.928 276.687c-0.348 0.109-0.675-0.083-0.982-0.577v0c-0.051-0.074-0.106-0.206-0.166-0.395v0c-0.083-0.265-0.155-0.684-0.216-1.255v0c-0.054-0.372-0.094-0.665-0.12-0.878-0.025-0.214-0.039-0.38-0.041-0.498v0c-0.386-4.043-0.639-7.628-0.758-10.755v0l-1.175-13.644c-0.016-0.051 0-0.142 0.049-0.276 0.048-0.133 0.122-0.229 0.222-0.288v0l0.199-0.062c0.008 0.025 0.053 0.025 0.135-0.001v0c0.322-0.101 0.673-0.256 1.051-0.465v0c0.372-0.207 0.723-0.362 1.052-0.465v0c0.588-0.184 1.15-0.315 1.688-0.394v0c0.246-0.077 0.519-0.149 0.817-0.214 0.307-0.062 0.622-0.143 0.944-0.244v0c0.107-0.034 0.222-0.101 0.343-0.201v0l0.721-0.226 0.929-0.291 0.964-0.344c0.175-0.083 0.399-0.167 0.671-0.252v0c0.215-0.067 0.317-0.117 0.307-0.149v0l0.645-0.202 1.374-0.431 1.697-0.531c1.504-0.471 2.508-0.755 3.012-0.851v0c0.082-0.026 0.198-0.055 0.348-0.088 0.156-0.035 0.255-0.028 0.298 0.021v0c0.19-0.059 0.371-0.134 0.544-0.223 0.182-0.085 0.355-0.153 0.519-0.204v0c0.347-0.199 0.698-0.354 1.051-0.465v0c0.158-0.05 0.332-0.059 0.523-0.028v0c0.184 0.033 0.37 0.019 0.559-0.041v0l0.197-0.103 0.114-0.035c0.098 0.025 0.209 0.07 0.334 0.134 0.124 0.065 0.195 0.123 0.21 0.174v0l6.824 11.873c1.848 2.884 3.674 5.976 5.479 9.276v0c0.052 0.164 0.161 0.324 0.328 0.48v0c0.085 0.182 0.206 0.425 0.364 0.729 0.152 0.306 0.261 0.567 0.328 0.782v0c0.065 0.098 0.128 0.241 0.187 0.431v0c0.117 0.373 0.132 0.708 0.045 1.006v0c-0.058 0.192-0.194 0.321-0.409 0.389v0l-0.521 0.163c-0.404 0.127-0.718 0.211-0.941 0.253v0l-1.052 0.33-1.015 0.318-0.805 0.253c-0.215 0.067-0.326 0.088-0.335 0.063v0l-2.54 0.796-0.027-0.085c-0.123-0.017-0.267 0-0.431 0.052v0c0 0-0.004 0.008-0.013 0.025-0.009 0.017-0.022 0.042-0.039 0.074v0c0.018 0.057-0.002 0.094-0.059 0.112v0l-0.113 0.036-0.332 0.104c-0.151-0.015-0.428 0.04-0.833 0.167v0c-0.818 0.201-1.458 0.374-1.919 0.519v0c-0.235-0.197-0.555-0.631-0.96-1.303-0.405-0.671-0.841-1.42-1.308-2.244v0c-0.185-0.414-0.332-0.694-0.44-0.841v0c-0.529 0.284-1.251 0.569-2.168 0.857v0l-1.251 0.392-1.166 0.365 0.12 1.379c0.205 1.893 0.267 3.088 0.187 3.585v0c-0.107 0.034-0.232 0.101-0.375 0.2v0c-0.049 0.043-0.089 0.08-0.121 0.111-0.04 0.026-0.06 0.04-0.06 0.04v0l-0.162 0.05c-0.158 0.05-0.287 0.059-0.386 0.028v0c-0.066-0.035-0.141-0.039-0.223-0.013v0l-1.796 0.646-0.645 0.202-0.607 0.19c-0.09 0.091-0.213 0.161-0.371 0.21v0l-0.171 0.054-3.706 1.161-0.37 0.116c-0.289 0.118-0.889 0.32-1.798 0.606v0l-1.052 0.33c-0.207 0.093-0.513 0.202-0.917 0.329v0zM181.474 260.956c-0.597-1.263-0.896-1.895-0.896-1.895v0c-0.199-0.347-0.559-1.019-1.079-2.014v0c-0.134-0.25-0.494-0.935-1.081-2.056v0c-0.625-1.22-0.938-1.83-0.938-1.829v0c-0.244-0.513-0.471-0.959-0.68-1.338v0l-0.201-0.51c-0.126-0.113-0.205-0.224-0.24-0.331v0l-0.112-0.225c-0.016 0.06-0.007 0.144 0.027 0.252v0c0.034 0.107 0.03 0.185-0.01 0.232v0l0.05 0.161 0.078 0.548c0.034 0.198 0.068 0.416 0.102 0.656 0.027 0.241 0.058 0.506 0.092 0.793v0l0.145 1.193c0.24 1.785 0.374 2.822 0.403 3.112v0c0.068 0.305 0.14 0.768 0.217 1.389v0c0.003 0.207 0.038 0.509 0.106 0.904v0l0.26 1.959 2.057-0.645 0.258-0.175 0.076-0.023c0.322-0.101 0.574-0.149 0.756-0.144v0c0.107-0.034 0.214-0.046 0.321-0.038 0.109 0.015 0.205 0.023 0.289 0.024z" fill="#8b3c7f" data-fill-palette-color="primary"></path><path d="M239.625 236.438c-0.082 0.077-0.163 0.136-0.243 0.176v0c-0.485 0.104-0.936 0.139-1.352 0.105v0c-0.158-0.042-0.247-0.053-0.266-0.035v0c-0.06-0.016-0.11-0.005-0.149 0.032v0l-0.099 0.025c-0.159-0.004-0.239-0.006-0.238-0.006v0l-6.274-1.387c-0.375-0.155-0.822-0.279-1.34-0.372v0c-0.276-0.003-0.542-0.038-0.798-0.105v0c-0.2-0.047-0.341-0.032-0.423 0.045v0c-0.062 0.059-0.078 0.134-0.048 0.224 0.026 0.094 0.077 0.201 0.154 0.32v0c0.462 0.612 1.139 1.388 2.033 2.33v0c0.853 0.898 1.49 1.671 1.914 2.319v0c0.188 0.323 0.222 0.542 0.102 0.656v0l-0.188 0.178c-0.057 0.017-0.106 0.037-0.149 0.059-0.038 0.018-0.057 0.027-0.057 0.027v0c-0.656 0.742-1.662 1.833-3.015 3.273v0c-1.316 1.404-2.341 2.454-3.076 3.152v0c-0.207 0.196-0.393 0.332-0.559 0.407v0l-0.67 0.636-0.555 0.526-0.273 0.26-1.459 0.686-0.319-0.163c-0.018-0.019-0.062-0.055-0.13-0.109-0.074-0.049-0.158-0.124-0.254-0.224v0c-0.119-0.125-0.352-0.332-0.701-0.623v0c-1.286-1.153-1.792-1.604-1.517-1.354v0c-0.549-0.492-1.494-1.344-2.836-2.554v0l-1.174-1.05c-0.351-0.37-0.671-0.687-0.959-0.952-0.293-0.27-0.547-0.499-0.762-0.688v0l-0.7-0.608c-0.86-0.781-1.639-1.54-2.337-2.275v0c-0.018-0.019-0.043-0.055-0.074-0.107-0.027-0.048-0.1-0.134-0.219-0.259v0c-0.075-0.166-0.238-0.381-0.489-0.645v0l-0.497-0.582-0.313-0.402c-0.406-0.428-1.018-1.029-1.836-1.804v0c-0.569-0.436-1.233-1.053-1.989-1.851v0c-1.09-1.148-1.813-2.055-2.171-2.72v0c-0.52-0.913-0.563-1.575-0.131-1.985v0c2.311-2.193 4.692-4.393 7.143-6.601v0c0.533-0.506 1.351-1.241 2.454-2.205v0l1.224-1.107c1.674-1.516 2.829-2.575 3.462-3.177v0c2.76-2.382 5.388-3.611 7.882-3.686v0c1.098-0.065 2.135 0.119 3.113 0.552 0.977 0.433 1.853 1.058 2.628 1.874v0c0.894 0.942 1.543 1.977 1.949 3.108v0c0.318 0.903 0.464 1.874 0.437 2.913v0c-0.026 0.992-0.222 1.955-0.588 2.887v0c0.184-0.056 0.478-0.079 0.88-0.068v0c0.177 0.023 0.444 0.021 0.801-0.008v0l0.726-0.1c0.158 0.042 0.321 0.069 0.49 0.083 0.168 0.014 0.343 0.035 0.525 0.063v0l3.131 0.412c1.447 0.216 2.446 0.432 2.997 0.648v0c0.399 0.132 0.665 0.268 0.797 0.407v0c0.196 0.207 0.29 0.469 0.282 0.787-0.008 0.318-0.06 0.755-0.154 1.31v0c-0.067 0.42-0.187 0.866-0.358 1.34v0c-0.152 0.455-0.244 0.83-0.275 1.124v0l-0.551 1.7c-0.199 0.608-0.454 1.22-0.764 1.835v0c-0.019 0.018-0.037 0.053-0.052 0.104-0.011 0.047-0.038 0.109-0.082 0.188v0c-0.061 0.176-0.29 0.608-0.688 1.296v0c-0.046 0.163-0.174 0.38-0.382 0.65v0c-0.017 0.098-0.059 0.198-0.127 0.299-0.059 0.102-0.108 0.171-0.146 0.207v0l-0.152 0.144c0.072 0.124 0.079 0.213 0.021 0.267v0l-0.093 0.089zM223.85 230.812l0.461-0.438c0.634-0.602 0.833-1.393 0.596-2.373v0c-0.192-0.904-0.617-1.742-1.276-2.514v0c-0.367-0.473-0.831-1.005-1.392-1.596v0l-0.321-0.339c-0.447-0.471-0.993-0.883-1.64-1.237v0c-0.788-0.503-1.573-0.652-2.357-0.448v0c-0.404 0.027-0.788 0.214-1.153 0.56v0c-0.106 0.1-0.071 0.3 0.104 0.6v0c0.241 0.629 0.819 1.445 1.735 2.448v0c0.306 0.486 0.721 1.005 1.245 1.557v0l0.847 0.95c1.083 1.228 1.991 2.228 2.725 3.001v0c0.023 0.024 0.053 0.037 0.09 0.038 0.042-0.004 0.073-0.014 0.092-0.033v0z" fill="#8b3c7f" data-fill-palette-color="primary"></path><path d="M263.381 198.477c-0.149 0.361-0.509 0.531-1.081 0.51v0c-1.019 0.038-2.664-0.411-4.935-1.348v0c-2.186-0.902-4.685-1.98-7.499-3.234v0c-0.902-0.401-2.305-0.994-4.209-1.779v0l-0.205 0.055-1.792 4.343c-0.139 0.337-0.436 0.526-0.89 0.568-0.46 0.039-1.052-0.029-1.774-0.206v0c-0.837-0.195-1.983-0.593-3.441-1.194v0l-0.551-0.227c-0.257-0.106-0.46-0.204-0.609-0.294v0l-0.588-0.243-0.348-0.144c-0.159-0.066-0.264-0.202-0.315-0.409-0.053-0.201-0.064-0.417-0.034-0.648v0c0.035-0.294 0.16-0.701 0.375-1.221v0l1.228-2.975c0.268-0.649 0.485-1.14 0.65-1.472v0l0.632-1.427 5.808-14.077c0.419-1.016 0.707-1.678 0.862-1.987v0c0.084-0.116 0.186-0.285 0.307-0.508 0.12-0.223 0.243-0.372 0.368-0.449v0c0.153-0.145 0.296-0.214 0.43-0.21 0.131 0.011 0.314 0.065 0.546 0.161v0l6.456 2.663c0.288 0.119 0.436 0.316 0.443 0.592v0c-0.011 0.182-0.069 0.401-0.174 0.658v0l-0.52 1.259-0.53 1.285c-0.248 0.6-0.463 1.045-0.647 1.334v0l-0.485 1.176c-0.096 0.233-0.098 0.386-0.007 0.459v0c0.024 0.01 0.053 0.036 0.086 0.078 0.027 0.04 0.067 0.071 0.123 0.094v0l0.578 0.239 1.332 0.549c0.392 0.162 0.687 0.298 0.884 0.408v0c0.759 0.313 2.394 1.048 4.904 2.206v0l1.141 0.567c1.076 0.501 1.85 0.881 2.323 1.142v0l3.71 1.53c0.888 0.366 1.372 0.781 1.453 1.245v0c-0.004 0.392-0.021 0.658-0.049 0.796v0l-0.368 0.998c-0.419 1.016-0.687 1.744-0.804 2.183v0l-1.657 4.119c-0.19 0.53-0.566 1.475-1.127 2.835z" fill="#8b3c7f" data-fill-palette-color="primary"></path><path d="M9.997 141.441c0-1.81 1.467-3.277 3.277-3.278 1.81 0 3.277 1.467 3.278 3.278 0 1.81-1.467 3.277-3.278 3.277-1.81 0-3.277-1.467-3.277-3.277z" fill="#8b3c7f" data-fill-palette-color="primary"></path><path d="M260.332 141.441c0-1.81 1.467-3.277 3.278-3.278 1.81 0 3.277 1.467 3.277 3.278 0 1.81-1.467 3.277-3.277 3.277-1.81 0-3.277-1.467-3.278-3.277z" fill="#8b3c7f" data-fill-palette-color="primary"></path></g></svg></g></svg></g></svg></g></svg></g><defs></defs></svg><rect width="280" height="280" fill="none" stroke="none" visibility="hidden"></rect></g></svg></g></svg>